<svg xmlns="http://www.w3.org/2000/svg" viewBox="0 0 22.1213 31" role="img" aria-labelledby="snowfire-logo-title">
  <title id="snowfire-logo-title">SnowFire icon</title>
  <g clip-path="url(#clip0_2226_374)" id="Logo"><g id="logo"><path clip-rule="evenodd" d="M8.34895 10.5523L0 15.4998C8.16858 15.4998 11.5255 15.4998 22.1211 15.4998L8.34895 10.5523Z" fill="var(--fill-0, #FF3E2C)" fill-rule="evenodd" id="Vector"></path><path clip-rule="evenodd" d="M0 15.4999L8.34888 10.5524L4.62224 9.21365L0 15.4999Z" fill="var(--fill-0, #FD7401)" fill-rule="evenodd" id="Vector_2"></path><path clip-rule="evenodd" d="M8.34863 10.5526L22.1209 15.5002L12.8561 7.88162L8.34863 10.5526Z" fill="var(--fill-0, #FD7401)" fill-rule="evenodd" id="Vector_3"></path><path clip-rule="evenodd" d="M8.34883 10.5525L12.8563 7.88145L8.33539 4.16391L4.62219 9.21371L8.34883 10.5525Z" fill="var(--fill-0, #F9A81A)" fill-rule="evenodd" id="Vector_4"></path><path clip-rule="evenodd" d="M0 15.5L4.62224 9.21369L3.6037 8.84773L0 15.5Z" fill="var(--fill-0, #F9A81A)" fill-rule="evenodd" id="Vector_5"></path><path clip-rule="evenodd" d="M3.60388 8.84766L4.62242 9.21362L8.33562 4.16382L6.81763 2.91546L3.60388 8.84766Z" fill="var(--fill-0, #FFCC00)" fill-rule="evenodd" id="Vector_6"></path><path clip-rule="evenodd" d="M8.3356 4.16391L12.8565 7.88145L15.6889 6.20292L11.3974 0L8.3356 4.16391Z" fill="var(--fill-0, #FFCC00)" fill-rule="evenodd" id="Vector_7"></path><path clip-rule="evenodd" d="M15.6886 6.20276L12.8562 7.88128L22.121 15.4998L15.6886 6.20276Z" fill="var(--fill-0, #F9A81A)" fill-rule="evenodd" id="Vector_8"></path><path clip-rule="evenodd" d="M15.6888 6.20273L22.1213 15.4998L17.5047 5.12674L15.6888 6.20273Z" fill="var(--fill-0, #FFCC00)" fill-rule="evenodd" id="Vector_9"></path><path clip-rule="evenodd" d="M0 15.5002L3.6037 8.84797L1.87549 8.22712L0 15.5002Z" fill="var(--fill-0, #FFCC00)" fill-rule="evenodd" id="Vector_10"></path><path clip-rule="evenodd" d="M13.7722 20.4475L22.1211 15.5C13.9526 15.5 10.5956 15.5 0 15.5L13.7722 20.4475Z" fill="var(--fill-0, #007AFF)" fill-rule="evenodd" id="Vector_11"></path><path clip-rule="evenodd" d="M22.121 15.5L13.7722 20.4476L17.4986 21.7864L22.121 15.5Z" fill="var(--fill-0, #00A6FF)" fill-rule="evenodd" id="Vector_12"></path><path clip-rule="evenodd" d="M13.7723 20.4476L0 15.5L9.26484 23.1184L13.7723 20.4476Z" fill="var(--fill-0, #00A6FF)" fill-rule="evenodd" id="Vector_13"></path><path clip-rule="evenodd" d="M13.7721 20.4477L9.26465 23.1186L13.7856 26.8363L17.4985 21.7865L13.7721 20.4477Z" fill="var(--fill-0, #00CCFF)" fill-rule="evenodd" id="Vector_14"></path><path clip-rule="evenodd" d="M22.1212 15.5L17.4988 21.7864L18.5176 22.1523L22.1212 15.5Z" fill="var(--fill-0, #00CCFF)" fill-rule="evenodd" id="Vector_15"></path><path clip-rule="evenodd" d="M18.5178 22.1522L17.499 21.7863L13.786 26.8361L15.304 28.0843L18.5178 22.1522Z" fill="var(--fill-0, #99FFFF)" fill-rule="evenodd" id="Vector_16"></path><path clip-rule="evenodd" d="M13.786 26.8361L9.26512 23.1184L6.43274 24.7969L10.6601 30.9999L13.786 26.8361Z" fill="var(--fill-0, #99FFFF)" fill-rule="evenodd" id="Vector_17"></path><path clip-rule="evenodd" d="M6.43246 24.7969L9.26484 23.1184L0 15.5L6.43246 24.7969Z" fill="var(--fill-0, #00CCFF)" fill-rule="evenodd" id="Vector_18"></path><path clip-rule="evenodd" d="M6.43246 24.7969L0 15.5L4.61655 25.8731L6.43246 24.7969Z" fill="var(--fill-0, #99FFFF)" fill-rule="evenodd" id="Vector_19"></path><path clip-rule="evenodd" d="M22.1212 15.5L18.5176 22.1523L20.2456 22.773L22.1212 15.5Z" fill="var(--fill-0, #99FFFF)" fill-rule="evenodd" id="Vector_20"></path></g></g><defs><clipPath id="clip0_2226_374"><rect fill="white" height="31" width="22.1213"></rect></clipPath></defs>+</svg>
